PathFileType	4	(X/Y/Z)	\\147.46.242.158\로컬 디스크 (e)\MOCAP Data\Iguana Capture\iguana\Project 2\Capture day 6 after broken\Session 2\Take05 good walk.trc
DataRate	CameraRate	NumFrames	NumMarkers	Units	OrigDataRate	OrigDataStartFrame	OrigNumFrames
120.0	120.0	11	23	mm	120.0	1	5093
Frame#	Time	ana:head1			ana:head2			ana:bone1			ana:bone2			ana:bone3			ana:tail1			ana:tail2			ana:tail3			ana:tail4			ana:Rforefoot1			ana:Rforefoot2			ana:Rforefoot3			ana:Lforefoot1			ana:Lforefoot2			ana:Lforefoot3			ana:RhindLeg1			ana:RhindLeg2			ana:RhindLeg3			ana:RhindLeg4			ana:LhindLeg1			ana:LhindLeg2			ana:LhindLeg3			ana:LhindLeg4			
		X1	Y1	Z1	X2	Y2	Z2	X3	Y3	Z3	X4	Y4	Z4	X5	Y5	Z5	X6	Y6	Z6	X7	Y7	Z7	X8	Y8	Z8	X9	Y9	Z9	X10	Y10	Z10	X11	Y11	Z11	X12	Y12	Z12	X13	Y13	Z13	X14	Y14	Z14	X15	Y15	Z15	X16	Y16	Z16	X17	Y17	Z17	X18	Y18	Z18	X19	Y19	Z19	X20	Y20	Z20	X21	Y21	Z21	X22	Y22	Z22	X23	Y23	Z23	

4000	33.325	-438.89203	-6.15644	56.12668	-433.89117	3.33389	55.49955	-425.53345	22.18389	46.16453	-413.44498	45.85385	42.48859	-411.52032	83.41219	34.97255	-410.60269	113.75409	26.31054	-406.06128	146.53200	18.20363	-396.99298	190.51814	10.86734	-392.08807	223.55397	9.61913	-437.03128	26.47816	30.20132	-441.98941	39.00550	21.60012	-439.32315	29.57600	8.20463	-422.40204	6.99993	34.00764	-411.93234	-0.87851	23.54695	-416.61917	-12.91196	12.28048	-419.50934	79.33652	29.59079	-431.14685	68.77830	33.52980	-442.32800	78.40839	20.16640	-450.86951	68.25816	19.42075	-399.20026	82.53334	26.95428	-382.22348	83.13023	21.14931	-381.77042	97.94342	10.00227	-378.84055	85.00633	6.60373	
4001	33.333	-438.86636	-6.23960	56.10527	-433.85300	3.24879	55.44115	-425.55444	22.12353	46.19070	-413.48676	45.81057	42.46626	-411.57483	83.23035	34.88897	-410.74399	113.69149	26.26378	-406.20071	146.47777	18.19354	-397.04349	190.44623	10.84120	-392.09619	223.46700	9.63899	-437.04623	26.42060	30.16950	-442.00180	38.97685	21.68361	-439.36237	29.61913	8.11116	-422.18472	7.05971	33.78632	-411.95221	-0.91041	23.42751	-416.56613	-12.90396	12.10580	-419.59763	79.21313	29.52758	-431.16208	68.56871	33.45890	-442.49542	77.82586	19.95598	-450.94861	67.59814	19.17084	-399.29431	82.51360	26.94051	-382.29214	83.11718	21.17787	-381.79907	97.93251	9.99029	-378.84549	84.99651	6.60559	
4002	33.342	-438.84839	-6.34047	56.08523	-433.81906	3.13606	55.38237	-425.57864	22.03975	46.21769	-413.54385	45.74957	42.44117	-411.65350	83.01470	34.80639	-410.93280	113.60930	26.20455	-406.38077	146.40140	18.17019	-397.12158	190.35194	10.81314	-392.10715	223.35539	9.65604	-437.06592	26.34062	30.13931	-442.02090	38.93063	21.78300	-439.42236	29.65396	8.03315	-421.92496	7.13911	33.52022	-411.96494	-0.95331	23.29466	-416.51349	-12.90067	11.91840	-419.71243	79.05735	29.45176	-431.18695	68.29694	33.36008	-442.69574	77.08821	19.68651	-451.04059	66.76804	18.84782	-399.40750	82.48811	26.92921	-382.38470	83.10767	21.22150	-381.83514	97.92088	9.97732	-378.85379	84.98690	6.60958	
4003	33.350	-438.86353	-6.47837	56.06418	-433.80780	2.96223	55.33314	-425.61154	21.89586	46.23285	-413.63852	45.64247	42.40823	-411.79544	82.75743	34.73383	-411.21823	113.47928	26.11328	-406.63586	146.26889	18.10237	-397.26166	190.20728	10.78740	-392.12915	223.18581	9.66166	-437.09732	26.20295	30.12086	-442.05487	38.83588	21.88591	-439.53738	29.63723	8.04042	-421.60492	7.23168	33.18175	-411.94809	-1.01919	23.14480	-416.46683	-12.91215	11.72798	-419.89218	78.83658	29.34301	-431.25452	67.90605	33.16571	-442.93625	76.08527	19.25965	-451.14316	65.65435	18.33681	-399.56592	82.43287	26.91304	-382.53381	83.10747	21.29339	-381.88644	97.91183	9.96684	-378.86993	84.98259	6.61685	
4004	33.358	-438.87653	-6.60805	56.04078	-433.79532	2.80226	55.28413	-425.64377	21.76268	46.24556	-413.72690	45.54349	42.37603	-411.92688	82.52091	34.65949	-411.47778	113.35825	26.02670	-406.86789	146.14655	18.03940	-397.38702	190.07332	10.76311	-392.15067	223.02802	9.66841	-437.12704	26.07526	30.10182	-442.08563	38.74919	21.97696	-439.63983	29.62276	8.04139	-421.31131	7.30824	32.86961	-411.93332	-1.07938	23.00236	-416.41876	-12.92084	11.54445	-420.06018	78.63288	29.23837	-431.32199	67.55052	32.97911	-443.15524	75.17490	18.85652	-451.23660	64.64299	17.85744	-399.71652	82.37732	26.89295	-382.67181	83.10466	21.35590	-381.93402	97.90360	9.95741	-378.88431	84.97863	6.62278	
4005	33.367	-438.90585	-6.75068	56.01353	-433.79401	2.62232	55.23993	-425.68069	21.60666	46.24864	-413.83093	45.42702	42.33990	-412.08344	82.28249	34.58733	-411.76389	113.21940	25.92616	-407.11737	146.00311	17.95640	-397.53104	189.92188	10.74142	-392.17834	222.84984	9.67008	-437.16193	25.92519	30.08824	-442.12155	38.64382	22.05754	-439.75769	29.58327	8.08022	-421.01266	7.37345	32.54509	-411.90369	-1.14654	22.85758	-416.37149	-12.93425	11.36472	-420.25320	78.41048	29.11823	-431.41537	67.16649	32.74503	-443.37332	74.21664	18.38747	-451.32587	63.58409	17.30387	-399.88528	82.30393	26.86501	-382.83047	83.10358	21.42364	-381.98642	97.89769	9.95051	-378.90118	84.97797	6.62916	
4006	33.375	-438.95258	-6.90453	55.98023	-433.80463	2.42644	55.20055	-425.72311	21.42988	46.23941	-413.95071	45.29472	42.29950	-412.26376	82.05132	34.51525	-412.06686	113.06455	25.81140	-407.37518	145.84070	17.85320	-397.68842	189.75552	10.72313	-392.21292	222.65434	9.66671	-437.20227	25.75431	30.08008	-442.16208	38.52146	22.12090	-439.88422	29.51845	8.15504	-420.72253	7.41648	32.22018	-411.85815	-1.21882	22.71332	-416.32333	-12.95101	11.19110	-420.46948	78.17524	28.98149	-431.53986	66.76878	32.45968	-443.57928	73.25316	17.85385	-451.40570	62.52549	16.68098	-400.07150	82.20987	26.82567	-383.00778	83.10250	21.49201	-382.04266	97.89477	9.94699	-378.92004	84.98123	6.63553	
4007	33.383	-439.01657	-7.06784	55.93881	-433.82675	2.21923	55.16507	-425.77213	21.23540	46.21598	-414.08658	45.14912	42.25467	-412.46530	81.83456	34.43994	-412.37643	112.89619	25.68247	-407.63187	145.66245	17.73113	-397.85284	189.57730	10.70847	-392.25488	222.44556	9.65882	-437.24820	25.56509	30.07648	-442.20667	38.38491	22.16248	-440.01050	29.43150	8.25818	-420.45435	7.42748	31.90672	-411.79651	-1.29421	22.57175	-416.27185	-12.96908	11.02383	-420.70657	77.93334	28.82722	-431.69986	66.37325	32.12180	-443.76266	72.32762	17.25976	-451.47137	61.51508	15.99719	-400.27390	82.09367	26.77194	-383.20102	83.09919	21.55617	-382.10165	97.89522	9.94744	-378.94009	84.98875	6.64162	
4008	33.392	-439.09647	-7.23882	55.88775	-433.85941	2.00550	55.13178	-425.82864	21.02712	46.17758	-414.23895	44.99343	42.20547	-412.68481	81.63647	34.35724	-412.68237	112.71738	25.53986	-407.87930	145.47221	17.59298	-398.01755	189.39037	10.69710	-392.30423	222.22815	9.64728	-437.30005	25.36065	30.07591	-442.25479	38.23780	22.18059	-440.12622	29.32879	8.37709	-420.22021	7.39871	31.61546	-411.71942	-1.37065	22.43425	-416.21417	-12.98593	10.86137	-420.96136	77.69079	28.65498	-431.89847	65.99526	31.73320	-443.91537	71.47968	16.61230	-451.51959	60.59635	15.26435	-400.49066	81.95567	26.70193	-383.40756	83.09119	21.61152	-382.16254	97.89907	9.95213	-378.96054	85.00063	6.64753	
4009	33.400	-439.19022	-7.41566	55.82648	-433.90082	1.78985	55.09861	-425.89352	20.80944	46.12468	-414.40839	44.83126	42.15238	-412.91800	81.45782	34.26277	-412.97583	112.53143	25.38465	-408.11066	145.27437	17.44290	-398.17621	189.19794	10.68815	-392.36044	222.00719	9.63327	-437.35815	25.14456	30.07641	-442.30606	38.08414	22.17661	-440.22098	29.21898	8.49614	-420.03024	7.32556	31.35522	-411.62860	-1.44622	22.30144	-416.14761	-12.99896	10.70094	-421.23035	77.45293	28.46509	-432.13712	65.64850	31.29908	-444.03189	70.74191	15.92160	-451.54831	59.80453	14.49747	-400.71945	81.79819	26.61530	-383.62469	83.07615	21.65431	-382.22461	97.90600	9.96104	-378.98050	85.01675	6.65381	
4010	33.408	-439.29523	-7.59649	55.75565	-433.94910	1.57630	55.06346	-425.96738	20.58687	46.05901	-414.59540	44.66634	42.09623	-413.15994	81.29607	34.15258	-413.24988	112.34188	25.21866	-408.32166	145.07339	17.28612	-398.32333	189.00288	10.68034	-392.42233	221.78780	9.61807	-437.42270	24.92056	30.07587	-442.36005	37.92787	22.15496	-440.28595	29.11170	8.59910	-419.89200	7.20711	31.13231	-411.52631	-1.51927	22.17335	-416.07001	-13.00583	10.53934	-421.50946	77.22417	28.25896	-432.41513	65.34369	30.82810	-444.11008	70.13707	15.20071	-451.55746	59.16357	13.71407	-400.95709	81.62551	26.51355	-383.84991	83.05212	21.68209	-382.28741	97.91533	9.97394	-378.99899	85.03703	6.66150	
